<?xml version="1.0" encoding="UTF-8"?>
<svg width="20px" height="20px" viewBox="0 0 20 20" version="1.1" xmlns="http://www.w3.org/2000/svg" xmlns:xlink="http://www.w3.org/1999/xlink">
    <g id="Page-1" stroke="none" stroke-width="1" fill="none" fill-rule="evenodd">
        <g id="Vector" fill="#757575" fill-rule="nonzero">
            <path d="M19.5303201,18.4696599 L15.1803201,14.1196599 C14.8874269,13.8267667 14.4125531,13.8267667 14.1196599,14.1196599 C13.8267667,14.4125531 13.8267667,14.8874269 14.1196599,15.1803201 L18.4696599,19.5303201 C18.7625531,19.8232133 19.2374269,19.8232133 19.5303201,19.5303201 C19.8232133,19.2374269 19.8232133,18.7625531 19.5303201,18.4696599 Z" id="Path"></path>
            <path d="M9,17.75 C13.8325136,17.75 17.75,13.8325136 17.75,9 C17.75,4.16749982 13.8325069,0.25 9,0.25 C4.16750644,0.25 0.25,4.16750644 0.25,9 C0.25,13.8325069 4.16749982,17.75 9,17.75 Z M9,16.25 C4.99592636,16.25 1.75,13.0040792 1.75,9 C1.75,4.99593356 4.99593356,1.75 9,1.75 C13.0040792,1.75 16.25,4.99592636 16.25,9 C16.25,13.0040864 13.0040864,16.25 9,16.25 Z" id="Path"></path>
        </g>
    </g>
</svg>
